<svg width="500" height="500" viewBox="0 0 500 500" fill="none" xmlns="http://www.w3.org/2000/svg">
<path d="M423.111 455.736C476.697 450.187 452.595 437 452.595 437H54C54 437 131.028 448.453 232.818 453.653C332.015 458.721 388.884 459.28 423.111 455.736Z" fill="#60A5FA"/>
<path d="M36.2461 436.652H464.958" stroke="#263238" stroke-width="2" stroke-miterlimit="10" stroke-linecap="round" stroke-linejoin="round"/>
<path d="M40.9668 188.691V192.262" stroke="#263238" stroke-width="2" stroke-miterlimit="10" stroke-linecap="round" stroke-linejoin="round"/>
<path d="M40.9668 196.289V199.86" stroke="#263238" stroke-width="2" stroke-miterlimit="10" stroke-linecap="round" stroke-linejoin="round"/>
<path d="M35.3818 194.275H38.9528" stroke="#263238" stroke-width="2" stroke-miterlimit="10" stroke-linecap="round" stroke-linejoin="round"/>
<path d="M42.98 194.275H46.551" stroke="#263238" stroke-width="2" stroke-miterlimit="10" stroke-linecap="round" stroke-linejoin="round"/>
<path d="M144.057 100.025V103.596" stroke="#263238" stroke-width="2" stroke-miterlimit="10" stroke-linecap="round" stroke-linejoin="round"/>
<path d="M144.057 107.623V111.194" stroke="#263238" stroke-width="2" stroke-miterlimit="10" stroke-linecap="round" stroke-linejoin="round"/>
<path d="M138.473 105.609H142.044" stroke="#263238" stroke-width="2" stroke-miterlimit="10" stroke-linecap="round" stroke-linejoin="round"/>
<path d="M146.07 105.609H149.641" stroke="#263238" stroke-width="2" stroke-miterlimit="10" stroke-linecap="round" stroke-linejoin="round"/>
<path d="M423.331 193.361V196.933" stroke="#263238" stroke-width="2" stroke-miterlimit="10" stroke-linecap="round" stroke-linejoin="round"/>
<path d="M423.331 200.959V204.53" stroke="#263238" stroke-width="2" stroke-miterlimit="10" stroke-linecap="round" stroke-linejoin="round"/>
<path d="M417.746 198.947H421.317" stroke="#263238" stroke-width="2" stroke-miterlimit="10" stroke-linecap="round" stroke-linejoin="round"/>
<path d="M425.344 198.947H428.915" stroke="#263238" stroke-width="2" stroke-miterlimit="10" stroke-linecap="round" stroke-linejoin="round"/>
<path d="M317.57 28.7773V32.3483" stroke="#263238" stroke-width="2" stroke-miterlimit="10" stroke-linecap="round" stroke-linejoin="round"/>
<path d="M317.57 36.375V39.946" stroke="#263238" stroke-width="2" stroke-miterlimit="10" stroke-linecap="round" stroke-linejoin="round"/>
<path d="M311.985 34.3613H315.557" stroke="#263238" stroke-width="2" stroke-miterlimit="10" stroke-linecap="round" stroke-linejoin="round"/>
<path d="M319.583 34.3613H323.154" stroke="#263238" stroke-width="2" stroke-miterlimit="10" stroke-linecap="round" stroke-linejoin="round"/>
<path d="M101.967 39.1691C101.967 39.1691 107.173 39.0141 108.767 40.9021C110.36 42.7901 110.742 48.1961 110.742 48.1961C110.742 48.1961 114.221 43.0621 117.373 42.1371C121.406 40.9551 125.441 43.2991 125.441 43.2991" stroke="#263238" stroke-width="2" stroke-miterlimit="10" stroke-linecap="round" stroke-linejoin="round"/>
<path d="M119.111 50.2496C119.111 50.2496 122.62 49.6636 124.191 50.6576C125.762 51.6516 127.259 55.4456 127.259 55.4456C127.259 55.4456 128.593 50.9736 130.647 49.5966C133.274 47.8356 136.7 48.6046 136.7 48.6046" stroke="#263238" stroke-width="2" stroke-miterlimit="10" stroke-linecap="round" stroke-linejoin="round"/>
<path d="M53.191 108.398C42.755 108.011 40.178 98.1837 45.017 93.5737C52.73 86.2267 62.453 95.7717 62.453 95.7717C62.453 95.7717 61.604 81.2377 72.927 81.2227C82.927 81.2097 84.038 92.1507 84.038 92.1507C84.038 92.1507 90.144 81.5767 97.251 84.1437C102.134 85.9077 102.044 91.6377 101.838 94.2177C101.69 96.0607 104.824 88.1127 111.683 90.4747C117.801 92.5807 115.503 107.107 107.988 108.398C101.468 109.517 66.294 108.884 53.191 108.398Z" fill="#60A5FA"/>
<path d="M407.327 66.9805V71.3935C398.133 72.9585 392.849 78.2175 392.996 86.4815C393.144 94.7975 398.082 99.3615 407.327 102.031V117.792C406.112 117.027 405.098 115.994 404.302 114.513C403.696 113.387 403.261 112.145 402.957 110.899C402.777 110.164 402.685 110.02 402.663 109.785H394.636C394.694 110.381 394.821 111.697 395.098 112.831C395.555 114.7 396.241 116.555 397.2 118.336C399.41 122.441 402.815 125.323 407.328 126.49V131.239H415.397V126.911C424.372 125.691 429.977 119.293 430.107 110.688C430.215 103.51 425.757 98.3975 415.397 95.9365V79.3795C417.201 79.9695 418.629 80.9795 419.516 82.8245C420.014 83.8595 420.362 85.0295 420.567 86.1865C420.688 86.8705 420.73 87.2595 420.735 87.4685H428.804C428.79 86.8795 428.708 85.8685 428.511 84.7585C428.186 82.9265 427.631 81.0925 426.787 79.3365C424.589 74.7605 420.714 71.7875 415.397 71.0155V66.9805H407.327ZM407.327 79.2535V93.7105C402.907 92.0925 401.128 89.9175 401.065 86.3555C401 82.6535 402.782 80.2345 407.327 79.2535ZM415.397 104.174C420.544 105.639 422.083 107.591 422.038 110.562C421.974 114.79 419.714 117.773 415.397 118.716V104.174Z" stroke="#1D4ED8" stroke-width="2" stroke-miterlimit="10" stroke-linecap="round" stroke-linejoin="round"/>
<path d="M395.54 138.267C383.318 132.919 373.749 121.98 370.708 107.944C365.679 84.7236 380.425 61.8236 403.645 56.7946C426.865 51.7646 449.766 66.5116 454.796 89.7316C459.825 112.952 445.079 135.853 421.858 140.881C418.64 141.578 415.427 141.896 412.268 141.863" stroke="#1D4ED8" stroke-width="2" stroke-miterlimit="10" stroke-linecap="round" stroke-linejoin="round"/>
<path d="M395.48 138.254C395.48 138.254 394.097 148.481 388.651 153.922C380 162.564 375.775 163.585 375.775 163.585C375.775 163.585 391.189 162.195 399.71 156.924C408.412 151.539 412.134 141.864 412.134 141.864" stroke="#1D4ED8" stroke-width="2" stroke-miterlimit="10" stroke-linecap="round" stroke-linejoin="round"/>
<path d="M297.819 351.835L306.132 435.132H97.2158L120.309 311.484L297.819 351.835Z" fill="#60A5FA"/>
<path d="M110.888 246.52C110.888 184.272 161.35 133.811 223.598 133.811C285.846 133.811 336.308 184.272 336.308 246.52C336.308 308.768 285.846 359.23 223.598 359.23C161.35 359.23 110.888 308.768 110.888 246.52Z" fill="#263238"/>
<path opacity="0.3004" d="M241.069 134.859C241.085 134.878 241.083 134.902 241.1 134.921L249.006 143.89C249.945 144.957 251.565 145.079 252.631 144.14C253.698 143.201 253.789 141.582 252.85 140.515L248.975 136.109C246.381 135.569 243.725 135.217 241.069 134.859ZM233.475 135.671C232.817 135.679 232.159 135.944 231.663 136.452L223.944 144.359C222.951 145.375 222.959 146.991 223.975 147.984C224.991 148.977 226.638 148.969 227.631 147.952L235.35 140.046C236.343 139.03 236.335 137.414 235.319 136.421C234.811 135.925 234.133 135.664 233.475 135.671ZM272.194 143.734C272.23 143.782 272.216 143.844 272.256 143.89L280.163 152.89C281.101 153.957 282.721 154.047 283.788 153.109C284.668 152.334 284.727 151.148 284.256 150.14C280.371 147.78 276.368 145.618 272.194 143.734ZM264.663 144.671C264.004 144.679 263.347 144.913 262.85 145.421L255.1 153.327C254.107 154.344 254.146 155.991 255.163 156.984C256.179 157.977 257.795 157.937 258.788 156.921L266.506 149.015C267.499 147.999 267.491 146.383 266.475 145.39C265.967 144.893 265.321 144.664 264.663 144.671ZM240.913 152.577C240.256 152.536 239.571 152.733 239.038 153.202C237.971 154.141 237.88 155.761 238.819 156.827L246.694 165.796C247.632 166.863 249.284 166.985 250.35 166.046C251.417 165.108 251.508 163.488 250.569 162.421L242.663 153.421C242.193 152.888 241.57 152.619 240.913 152.577ZM293.663 156.515L287.975 162.327C286.982 163.344 286.99 164.959 288.006 165.952C289.022 166.945 290.67 166.937 291.663 165.921L297.788 159.64C296.46 158.539 295.041 157.555 293.663 156.515ZM231.194 157.577C230.536 157.585 229.878 157.851 229.381 158.359L221.663 166.265C220.67 167.281 220.678 168.897 221.694 169.89C222.71 170.883 224.326 170.875 225.319 169.859L233.069 161.952C234.062 160.936 234.022 159.32 233.006 158.327C232.498 157.831 231.852 157.57 231.194 157.577ZM272.194 161.546C271.537 161.504 270.852 161.702 270.319 162.171C269.252 163.11 269.161 164.73 270.1 165.796L278.006 174.796C278.945 175.863 280.565 175.954 281.631 175.015C282.698 174.076 282.789 172.457 281.85 171.39L273.975 162.421C273.506 161.888 272.851 161.588 272.194 161.546ZM205.881 165.484C205.224 165.442 204.54 165.671 204.006 166.14C202.94 167.079 202.849 168.698 203.788 169.765L211.663 178.734C212.601 179.8 214.252 179.922 215.319 178.984C216.385 178.045 216.476 176.394 215.538 175.327L207.631 166.359C207.162 165.825 206.538 165.526 205.881 165.484ZM262.475 166.577C261.817 166.585 261.159 166.819 260.663 167.327L252.944 175.234C251.951 176.25 251.959 177.897 252.975 178.89C253.991 179.883 255.638 179.844 256.631 178.827L264.35 170.952C265.343 169.936 265.335 168.289 264.319 167.296C263.811 166.8 263.133 166.57 262.475 166.577ZM196.163 170.515C195.504 170.523 194.847 170.788 194.35 171.296L186.631 179.202C185.638 180.219 185.646 181.834 186.663 182.827C187.679 183.82 189.295 183.812 190.288 182.796L198.038 174.89C199.031 173.874 198.991 172.258 197.975 171.265C197.467 170.768 196.821 170.507 196.163 170.515ZM303.35 170.515C302.693 170.473 302.04 170.702 301.506 171.171C300.44 172.11 300.318 173.73 301.256 174.796L309.163 183.765C310.101 184.832 311.721 184.954 312.788 184.015C313.854 183.076 313.976 181.425 313.038 180.359L305.131 171.39C304.662 170.857 304.007 170.557 303.35 170.515ZM237.038 174.484C236.381 174.442 235.696 174.639 235.163 175.109C234.096 176.047 234.005 177.667 234.944 178.734L242.85 187.734C243.789 188.8 245.409 188.891 246.475 187.952C247.542 187.014 247.632 185.394 246.694 184.327L238.819 175.327C238.35 174.794 237.695 174.526 237.038 174.484ZM293.663 175.546C293.004 175.554 292.347 175.819 291.85 176.327L284.131 184.234C283.138 185.25 283.147 186.866 284.163 187.859C285.179 188.852 286.795 188.844 287.788 187.827L295.506 179.921C296.499 178.905 296.491 177.258 295.475 176.265C294.967 175.768 294.321 175.539 293.663 175.546ZM227.319 179.484C226.661 179.491 226.003 179.757 225.506 180.265L217.788 188.171C216.795 189.187 216.834 190.803 217.85 191.796C218.866 192.789 220.482 192.781 221.475 191.765L229.194 183.859C230.187 182.843 230.179 181.227 229.163 180.234C228.655 179.737 227.977 179.476 227.319 179.484ZM169.85 181.484C169.193 181.442 168.54 181.639 168.006 182.109C166.94 183.047 166.818 184.667 167.756 185.734L175.663 194.734C176.601 195.8 178.221 195.891 179.288 194.952C180.354 194.014 180.476 192.394 179.538 191.327L171.631 182.359C171.162 181.825 170.507 181.526 169.85 181.484ZM270.975 183.452C270.318 183.411 269.665 183.608 269.131 184.077C268.065 185.016 267.943 186.667 268.881 187.734L276.788 196.702C277.726 197.769 279.346 197.86 280.413 196.921C281.479 195.983 281.601 194.363 280.663 193.296L272.756 184.327C272.287 183.794 271.632 183.494 270.975 183.452ZM160.131 186.515C159.473 186.523 158.815 186.757 158.319 187.265L150.6 195.171C149.607 196.187 149.646 197.834 150.663 198.827C151.679 199.82 153.295 199.781 154.288 198.765L162.006 190.859C162.999 189.843 162.991 188.227 161.975 187.234C161.467 186.737 160.79 186.507 160.131 186.515ZM201.913 187.39C201.256 187.348 200.602 187.577 200.069 188.046C199.002 188.985 198.88 190.605 199.819 191.671L207.725 200.64C208.664 201.707 210.284 201.829 211.35 200.89C212.417 199.951 212.539 198.332 211.6 197.265L203.694 188.265C203.225 187.732 202.57 187.432 201.913 187.39ZM261.288 188.484C260.629 188.491 259.972 188.757 259.475 189.265L251.756 197.14C250.763 198.156 250.771 199.803 251.788 200.796C252.804 201.789 254.42 201.75 255.413 200.734L263.131 192.859C264.124 191.843 264.116 190.195 263.1 189.202C262.592 188.706 261.946 188.476 261.288 188.484ZM322.506 188.609L319.069 192.109C318.076 193.125 318.084 194.772 319.1 195.765C320.116 196.758 321.732 196.75 322.725 195.734L325.225 193.171C324.384 191.607 323.418 190.128 322.506 188.609ZM303.288 191.359C302.631 191.317 301.946 191.514 301.413 191.984C300.346 192.922 300.224 194.542 301.163 195.609L309.069 204.609C310.007 205.675 311.659 205.766 312.725 204.827C313.792 203.889 313.883 202.269 312.944 201.202L305.038 192.234C304.568 191.7 303.945 191.401 303.288 191.359ZM192.194 192.421C191.536 192.429 190.878 192.694 190.381 193.202L182.663 201.109C181.67 202.125 181.709 203.741 182.725 204.734C183.741 205.727 185.357 205.719 186.35 204.702L194.069 196.796C195.062 195.78 195.054 194.164 194.038 193.171C193.53 192.675 192.852 192.414 192.194 192.421ZM235.944 196.39C235.287 196.348 234.633 196.546 234.1 197.015C233.034 197.954 232.911 199.573 233.85 200.64L241.756 209.64C242.695 210.707 244.315 210.797 245.381 209.859C246.448 208.92 246.57 207.3 245.631 206.234L237.725 197.265C237.256 196.732 236.601 196.432 235.944 196.39ZM293.569 196.39C292.911 196.398 292.253 196.632 291.756 197.14L284.038 205.046C283.045 206.062 283.053 207.709 284.069 208.702C285.085 209.695 286.701 209.656 287.694 208.64L295.444 200.734C296.437 199.718 296.397 198.102 295.381 197.109C294.873 196.612 294.227 196.382 293.569 196.39ZM226.256 201.421C225.598 201.429 224.94 201.663 224.444 202.171L216.725 210.077C215.732 211.094 215.74 212.741 216.756 213.734C217.772 214.727 219.388 214.687 220.381 213.671L228.1 205.765C229.093 204.749 229.085 203.133 228.069 202.14C227.561 201.643 226.915 201.414 226.256 201.421ZM165.913 203.39C165.256 203.348 164.571 203.546 164.038 204.015C162.971 204.954 162.88 206.573 163.819 207.64L171.725 216.64C172.664 217.707 174.284 217.797 175.35 216.859C176.417 215.92 176.507 214.3 175.569 213.234L167.663 204.265C167.193 203.732 166.57 203.432 165.913 203.39ZM267.131 205.359C266.474 205.317 265.79 205.514 265.256 205.984C264.19 206.922 264.099 208.573 265.038 209.64L272.944 218.609C273.882 219.675 275.502 219.766 276.569 218.827C277.635 217.889 277.726 216.269 276.788 215.202L268.881 206.234C268.412 205.7 267.788 205.401 267.131 205.359ZM324.725 205.359C324.067 205.366 323.409 205.632 322.913 206.14L315.194 214.046C314.201 215.062 314.209 216.678 315.225 217.671C316.241 218.664 317.888 218.656 318.881 217.64L326.6 209.734C327.593 208.718 327.585 207.071 326.569 206.077C326.061 205.581 325.383 205.351 324.725 205.359ZM156.194 208.421C155.536 208.429 154.878 208.663 154.381 209.171L146.663 217.077C145.67 218.094 145.678 219.741 146.694 220.734C147.71 221.727 149.357 221.687 150.35 220.671L158.069 212.796C159.062 211.78 159.022 210.133 158.006 209.14C157.498 208.643 156.852 208.414 156.194 208.421ZM198.069 209.327C197.412 209.286 196.727 209.483 196.194 209.952C195.127 210.891 195.036 212.511 195.975 213.577L203.85 222.546C204.789 223.613 206.44 223.735 207.506 222.796C208.573 221.858 208.664 220.238 207.725 219.171L199.819 210.171C199.35 209.638 198.726 209.369 198.069 209.327ZM257.413 210.39C256.754 210.398 256.097 210.663 255.6 211.171L247.881 219.077C246.888 220.094 246.896 221.709 247.913 222.702C248.929 223.695 250.576 223.687 251.569 222.671L259.288 214.765C260.281 213.749 260.241 212.102 259.225 211.109C258.717 210.612 258.071 210.382 257.413 210.39ZM303.288 213.265C302.631 213.223 301.946 213.421 301.413 213.89C300.346 214.829 300.224 216.48 301.163 217.546L309.069 226.515C310.007 227.582 311.659 227.672 312.725 226.734C313.792 225.795 313.883 224.175 312.944 223.109L305.038 214.14C304.568 213.607 303.945 213.307 303.288 213.265ZM188.35 214.327C187.692 214.335 187.034 214.601 186.538 215.109L178.819 223.015C177.826 224.031 177.834 225.647 178.85 226.64C179.866 227.633 181.513 227.625 182.506 226.609L190.225 218.702C191.218 217.686 191.179 216.071 190.163 215.077C189.655 214.581 189.008 214.32 188.35 214.327ZM233.975 215.765C233.318 215.723 232.633 215.952 232.1 216.421C231.034 217.36 230.943 218.98 231.881 220.046L239.788 229.015C240.726 230.082 242.346 230.204 243.413 229.265C244.479 228.326 244.601 226.707 243.663 225.64L235.756 216.64C235.287 216.107 234.632 215.807 233.975 215.765ZM293.569 218.296C292.911 218.304 292.253 218.569 291.756 219.077L284.038 226.952C283.045 227.969 283.053 229.616 284.069 230.609C285.085 231.602 286.701 231.562 287.694 230.546L295.444 222.671C296.437 221.655 296.397 220.008 295.381 219.015C294.873 218.518 294.227 218.289 293.569 218.296ZM332.444 220.265C331.787 220.223 331.133 220.421 330.6 220.89C329.534 221.829 329.411 223.48 330.35 224.546L337.725 232.921C337.341 229.716 336.872 226.538 336.225 223.421L334.225 221.14C333.756 220.607 333.101 220.307 332.444 220.265ZM224.256 220.796C223.598 220.804 222.94 221.069 222.444 221.577L214.725 229.484C213.732 230.5 213.771 232.116 214.788 233.109C215.804 234.102 217.42 234.094 218.413 233.077L226.131 225.171C227.124 224.155 227.116 222.539 226.1 221.546C225.592 221.05 224.915 220.789 224.256 220.796ZM162.038 225.296C161.381 225.254 160.727 225.452 160.194 225.921C159.127 226.86 159.005 228.511 159.944 229.577L167.85 238.546C168.789 239.613 170.409 239.704 171.475 238.765C172.542 237.826 172.664 236.207 171.725 235.14L163.819 226.171C163.35 225.638 162.695 225.338 162.038 225.296ZM322.756 225.296C322.098 225.304 321.44 225.569 320.944 226.077L313.225 233.984C312.232 235 312.24 236.616 313.256 237.609C314.272 238.602 315.888 238.594 316.881 237.577L324.6 229.671C325.593 228.655 325.585 227.008 324.569 226.015C324.061 225.518 323.415 225.289 322.756 225.296ZM266.131 226.202C265.474 226.161 264.821 226.358 264.288 226.827C263.221 227.766 263.099 229.386 264.038 230.452L271.944 239.452C272.882 240.519 274.502 240.61 275.569 239.671C276.635 238.733 276.758 237.113 275.819 236.046L267.913 227.077C267.443 226.544 266.788 226.244 266.131 226.202ZM152.319 230.327C151.661 230.335 151.003 230.601 150.506 231.109L142.788 238.984C141.795 240 141.834 241.647 142.85 242.64C143.866 243.633 145.482 243.594 146.475 242.577L154.194 234.702C155.187 233.686 155.179 232.039 154.163 231.046C153.655 230.55 152.977 230.32 152.319 230.327ZM197.975 230.671C197.318 230.629 196.633 230.858 196.1 231.327C195.034 232.266 194.943 233.886 195.881 234.952L203.788 243.921C204.726 244.988 206.346 245.11 207.413 244.171C208.479 243.233 208.57 241.613 207.631 240.546L199.725 231.546C199.256 231.013 198.632 230.713 197.975 230.671ZM256.413 231.234C255.754 231.241 255.097 231.476 254.6 231.984L246.881 239.89C245.888 240.906 245.928 242.553 246.944 243.546C247.96 244.539 249.576 244.5 250.569 243.484L258.288 235.577C259.281 234.561 259.272 232.946 258.256 231.952C257.748 231.456 257.071 231.226 256.413 231.234ZM299.413 235.171C298.756 235.129 298.071 235.327 297.538 235.796C296.471 236.735 296.38 238.386 297.319 239.452L305.225 248.421C306.164 249.488 307.784 249.579 308.85 248.64C309.917 247.701 310.008 246.082 309.069 245.015L301.194 236.046C300.725 235.513 300.07 235.213 299.413 235.171ZM188.256 235.702C187.598 235.71 186.94 235.976 186.444 236.484L178.725 244.39C177.732 245.406 177.74 247.022 178.756 248.015C179.772 249.008 181.42 249 182.413 247.984L190.131 240.077C191.124 239.061 191.085 237.446 190.069 236.452C189.561 235.956 188.915 235.695 188.256 235.702ZM230.038 237.702C229.381 237.661 228.696 237.858 228.163 238.327C227.096 239.266 227.005 240.886 227.944 241.952L235.85 250.921C236.789 251.988 238.409 252.11 239.475 251.171C240.542 250.233 240.632 248.613 239.694 247.546L231.788 238.546C231.318 238.013 230.695 237.744 230.038 237.702ZM289.694 240.202C289.036 240.21 288.378 240.476 287.881 240.984L280.163 248.89C279.17 249.906 279.178 251.522 280.194 252.515C281.21 253.508 282.857 253.5 283.85 252.484L291.569 244.577C292.562 243.561 292.554 241.914 291.538 240.921C291.03 240.425 290.352 240.195 289.694 240.202ZM332.381 241.109C331.724 241.067 331.04 241.264 330.506 241.734C329.44 242.672 329.318 244.292 330.256 245.359L338.163 254.359C338.179 254.378 338.208 254.372 338.225 254.39C338.396 251.946 338.556 249.5 338.569 247.015L334.131 241.984C333.662 241.45 333.038 241.151 332.381 241.109ZM220.319 242.702C219.661 242.71 219.003 242.976 218.506 243.484L210.788 251.39C209.795 252.406 209.803 254.022 210.819 255.015C211.835 256.008 213.482 256 214.475 254.984L222.194 247.077C223.187 246.061 223.148 244.445 222.131 243.452C221.623 242.956 220.977 242.695 220.319 242.702ZM322.663 246.14C322.004 246.148 321.347 246.382 320.85 246.89L313.131 254.796C312.138 255.812 312.147 257.459 313.163 258.452C314.179 259.445 315.795 259.406 316.788 258.39L324.538 250.484C325.531 249.468 325.491 247.852 324.475 246.859C323.967 246.362 323.321 246.132 322.663 246.14ZM161.944 246.671C161.287 246.629 160.633 246.827 160.1 247.296C159.034 248.235 158.912 249.855 159.85 250.921L167.756 259.921C168.695 260.988 170.315 261.079 171.381 260.14C172.448 259.201 172.57 257.582 171.631 256.515L163.725 247.546C163.256 247.013 162.601 246.713 161.944 246.671ZM263.163 248.109C262.506 248.067 261.852 248.264 261.319 248.734C260.252 249.672 260.13 251.292 261.069 252.359L268.975 261.359C269.914 262.425 271.534 262.516 272.6 261.577C273.667 260.639 273.789 259.019 272.85 257.952L264.944 248.984C264.475 248.45 263.82 248.151 263.163 248.109ZM195.006 250.609C194.349 250.567 193.665 250.796 193.131 251.265C192.065 252.204 191.974 253.823 192.913 254.89L200.819 263.859C201.757 264.925 203.377 265.047 204.444 264.109C205.51 263.17 205.601 261.519 204.663 260.452L196.756 251.484C196.287 250.95 195.663 250.651 195.006 250.609ZM152.256 251.702C151.598 251.71 150.94 251.945 150.444 252.452L142.694 260.359C141.701 261.375 141.74 263.022 142.756 264.015C143.772 265.008 145.388 264.969 146.381 263.952L154.1 256.077C155.093 255.061 155.085 253.414 154.069 252.421C153.561 251.925 152.915 251.695 152.256 251.702ZM253.475 253.14C252.817 253.148 252.159 253.382 251.663 253.89L243.944 261.796C242.951 262.812 242.959 264.459 243.975 265.452C244.991 266.445 246.607 266.406 247.6 265.39L255.319 257.484C256.312 256.468 256.304 254.852 255.288 253.859C254.78 253.362 254.133 253.132 253.475 253.14ZM297.163 255.109C296.506 255.067 295.821 255.264 295.288 255.734C294.221 256.672 294.13 258.323 295.069 259.39L302.975 268.359C303.914 269.425 305.534 269.516 306.6 268.577C307.667 267.639 307.789 266.019 306.85 264.952L298.944 255.984C298.475 255.45 297.82 255.151 297.163 255.109ZM185.288 255.64C184.629 255.648 183.972 255.913 183.475 256.421L175.756 264.327C174.763 265.344 174.771 266.96 175.788 267.952C176.804 268.945 178.451 268.937 179.444 267.921L187.163 260.015C188.156 258.999 188.116 257.383 187.1 256.39C186.592 255.893 185.946 255.632 185.288 255.64ZM226.163 259.609C225.506 259.567 224.852 259.764 224.319 260.234C223.252 261.172 223.13 262.792 224.069 263.859L231.975 272.859C232.914 273.925 234.534 274.016 235.6 273.077C236.667 272.139 236.789 270.519 235.85 269.452L227.944 260.452C227.475 259.919 226.82 259.651 226.163 259.609ZM287.444 260.14C286.786 260.148 286.128 260.413 285.631 260.921L277.913 268.796C276.92 269.812 276.959 271.459 277.975 272.452C278.991 273.445 280.607 273.406 281.6 272.39L289.319 264.515C290.312 263.499 290.304 261.852 289.288 260.859C288.78 260.362 288.102 260.132 287.444 260.14ZM332.381 263.015C331.724 262.973 331.04 263.171 330.506 263.64C329.44 264.579 329.318 266.198 330.256 267.265L335.319 273.015C335.817 270.958 336.31 268.896 336.694 266.796L334.131 263.89C333.662 263.357 333.038 263.057 332.381 263.015ZM216.444 264.609C215.786 264.616 215.128 264.882 214.631 265.39L206.913 273.296C205.92 274.312 205.959 275.928 206.975 276.921C207.991 277.914 209.607 277.906 210.6 276.89L218.319 268.984C219.312 267.968 219.304 266.352 218.288 265.359C217.78 264.862 217.102 264.601 216.444 264.609ZM158.975 266.609C158.318 266.567 157.665 266.764 157.131 267.234C156.065 268.172 155.943 269.792 156.881 270.859L164.788 279.859C165.726 280.925 167.346 281.016 168.413 280.077C169.479 279.139 169.601 277.519 168.663 276.452L160.756 267.484C160.287 266.95 159.632 266.651 158.975 266.609ZM262.131 268.046C261.474 268.004 260.79 268.202 260.256 268.671C259.19 269.61 259.099 271.23 260.038 272.296L267.944 281.296C268.882 282.363 270.502 282.454 271.569 281.515C272.635 280.576 272.758 278.957 271.819 277.89L263.913 268.921C263.443 268.388 262.788 268.088 262.131 268.046ZM322.663 268.046C322.004 268.054 321.347 268.288 320.85 268.796L313.131 276.702C312.138 277.719 312.147 279.366 313.163 280.359C314.179 281.352 315.795 281.312 316.788 280.296L324.538 272.39C325.531 271.374 325.491 269.758 324.475 268.765C323.967 268.268 323.321 268.039 322.663 268.046ZM149.256 271.64C148.598 271.648 147.972 271.882 147.475 272.39L139.725 280.296C138.732 281.312 138.771 282.959 139.788 283.952C140.804 284.945 142.42 284.906 143.413 283.89L151.131 275.984C152.124 274.968 152.116 273.352 151.1 272.359C150.592 271.862 149.915 271.632 149.256 271.64ZM191.038 272.515C190.381 272.473 189.727 272.702 189.194 273.171C188.127 274.11 188.005 275.73 188.944 276.796L196.85 285.765C197.789 286.832 199.409 286.954 200.475 286.015C201.542 285.076 201.664 283.457 200.725 282.39L192.819 273.39C192.35 272.857 191.695 272.557 191.038 272.515ZM252.413 273.077C251.754 273.085 251.097 273.319 250.6 273.827L242.881 281.734C241.888 282.75 241.928 284.397 242.944 285.39C243.96 286.383 245.576 286.344 246.569 285.327L254.288 277.421C255.281 276.405 255.272 274.789 254.256 273.796C253.748 273.3 253.071 273.07 252.413 273.077ZM293.319 277.015C292.662 276.973 291.977 277.171 291.444 277.64C290.377 278.579 290.286 280.23 291.225 281.296L299.1 290.265C300.039 291.332 301.69 291.422 302.756 290.484C303.823 289.545 303.914 287.925 302.975 286.859L295.069 277.89C294.6 277.357 293.976 277.057 293.319 277.015ZM181.319 277.546C180.661 277.554 180.034 277.82 179.538 278.327L171.788 286.234C170.795 287.25 170.834 288.866 171.85 289.859C172.866 290.852 174.482 290.844 175.475 289.827L183.194 281.921C184.187 280.905 184.179 279.289 183.163 278.296C182.655 277.8 181.977 277.539 181.319 277.546ZM225.225 280.984C224.568 280.942 223.883 281.139 223.35 281.609C222.284 282.547 222.193 284.167 223.131 285.234L231.038 294.202C231.976 295.269 233.596 295.391 234.663 294.452C235.729 293.514 235.82 291.894 234.881 290.827L227.006 281.827C226.537 281.294 225.882 281.026 225.225 280.984ZM283.6 282.046C282.942 282.054 282.284 282.32 281.788 282.827L274.069 290.734C273.076 291.75 273.084 293.366 274.1 294.359C275.116 295.352 276.732 295.344 277.725 294.327L285.475 286.421C286.468 285.405 286.429 283.758 285.413 282.765C284.905 282.268 284.258 282.039 283.6 282.046ZM328.506 284.921C327.849 284.879 327.165 285.077 326.631 285.546C325.565 286.485 325.474 288.136 326.413 289.202L328.913 292.046C329.69 290.293 330.379 288.501 331.069 286.702L330.288 285.796C329.818 285.263 329.163 284.963 328.506 284.921ZM215.506 285.984C214.848 285.991 214.19 286.257 213.694 286.765L205.975 294.671C204.982 295.687 204.99 297.303 206.006 298.296C207.022 299.289 208.67 299.281 209.663 298.265L217.381 290.359C218.374 289.343 218.366 287.727 217.35 286.734C216.842 286.237 216.165 285.976 215.506 285.984ZM155.038 288.515C154.381 288.473 153.696 288.671 153.163 289.14C152.096 290.079 152.005 291.698 152.944 292.765L160.85 301.765C161.789 302.832 163.409 302.922 164.475 301.984C165.542 301.045 165.632 299.425 164.694 298.359L156.788 289.39C156.318 288.857 155.695 288.557 155.038 288.515ZM262.131 289.952C261.474 289.911 260.79 290.108 260.256 290.577C259.19 291.516 259.099 293.136 260.038 294.202L267.944 303.202C268.882 304.269 270.502 304.36 271.569 303.421C272.635 302.483 272.758 300.863 271.819 299.796L263.913 290.827C263.443 290.294 262.788 289.994 262.131 289.952ZM318.788 289.952C318.129 289.96 317.472 290.226 316.975 290.734L309.256 298.609C308.263 299.625 308.272 301.272 309.288 302.265C310.304 303.258 311.951 303.219 312.944 302.202L320.663 294.327C321.656 293.311 321.647 291.664 320.631 290.671C320.123 290.175 319.446 289.945 318.788 289.952ZM145.319 293.546C144.661 293.554 144.003 293.788 143.506 294.296L135.788 302.202C134.795 303.219 134.803 304.866 135.819 305.859C136.835 306.852 138.482 306.812 139.475 305.796L147.194 297.921C148.187 296.905 148.179 295.258 147.163 294.265C146.655 293.769 145.977 293.539 145.319 293.546ZM187.194 294.452C186.537 294.411 185.852 294.608 185.319 295.077C184.252 296.016 184.162 297.636 185.1 298.702L193.006 307.671C193.945 308.738 195.565 308.86 196.631 307.921C197.698 306.983 197.789 305.363 196.85 304.296L188.944 295.296C188.475 294.763 187.851 294.494 187.194 294.452ZM252.413 294.984C251.754 294.991 251.097 295.226 250.6 295.734L242.881 303.64C241.888 304.656 241.928 306.303 242.944 307.296C243.96 308.289 245.576 308.25 246.569 307.234L254.288 299.327C255.281 298.311 255.272 296.695 254.256 295.702C253.748 295.206 253.071 294.976 252.413 294.984ZM294.038 298.39C293.381 298.348 292.696 298.546 292.163 299.015C291.096 299.954 291.005 301.605 291.944 302.671L299.819 311.64C300.757 312.707 302.409 312.797 303.475 311.859C304.542 310.92 304.633 309.3 303.694 308.234L295.788 299.265C295.318 298.732 294.695 298.432 294.038 298.39ZM177.475 299.452C176.817 299.46 176.159 299.726 175.663 300.234L167.944 308.14C166.951 309.156 166.959 310.772 167.975 311.765C168.991 312.758 170.638 312.75 171.631 311.734L179.35 303.827C180.343 302.811 180.304 301.195 179.288 300.202C178.78 299.706 178.133 299.445 177.475 299.452ZM221.35 302.89C220.693 302.848 220.04 303.046 219.506 303.515C218.44 304.454 218.318 306.073 219.256 307.14L227.163 316.14C228.101 317.207 229.721 317.297 230.788 316.359C231.854 315.42 231.976 313.8 231.038 312.734L223.131 303.734C222.662 303.2 222.007 302.932 221.35 302.89ZM284.319 303.421C283.661 303.429 283.003 303.694 282.506 304.202L274.788 312.077C273.795 313.094 273.803 314.741 274.819 315.734C275.835 316.727 277.451 316.687 278.444 315.671L286.194 307.796C287.187 306.78 287.147 305.133 286.131 304.14C285.623 303.643 284.977 303.414 284.319 303.421ZM211.663 307.89C211.004 307.898 210.347 308.163 209.85 308.671L202.131 316.577C201.138 317.594 201.146 319.21 202.163 320.202C203.179 321.195 204.795 321.187 205.788 320.171L213.506 312.265C214.499 311.249 214.491 309.633 213.475 308.64C212.967 308.143 212.321 307.882 211.663 307.89ZM151.163 310.421C150.506 310.379 149.852 310.577 149.319 311.046C148.252 311.985 148.13 313.636 149.069 314.702L156.975 323.671C157.914 324.738 159.534 324.829 160.6 323.89C161.667 322.951 161.789 321.332 160.85 320.265L152.944 311.296C152.475 310.763 151.82 310.463 151.163 310.421ZM316.725 311.484C316.067 311.491 315.44 311.757 314.944 312.265L307.194 320.171C306.201 321.187 306.24 322.803 307.256 323.796C307.354 323.892 307.492 323.876 307.6 323.952C311.204 320.155 314.517 316.098 317.569 311.827C317.278 311.722 317.026 311.48 316.725 311.484ZM258.288 311.859C257.631 311.817 256.946 312.014 256.413 312.484C255.346 313.422 255.255 315.073 256.194 316.14L264.069 325.109C265.007 326.175 266.659 326.266 267.725 325.327C268.792 324.389 268.882 322.769 267.944 321.702L260.038 312.734C259.568 312.2 258.945 311.901 258.288 311.859ZM141.475 315.452C140.817 315.46 140.159 315.726 139.663 316.234L138.444 317.484C139.527 318.815 140.709 320.047 141.85 321.327L143.319 319.827C144.312 318.811 144.304 317.164 143.288 316.171C142.78 315.675 142.133 315.445 141.475 315.452ZM187.1 315.796C186.443 315.754 185.758 315.983 185.225 316.452C184.159 317.391 184.068 319.011 185.006 320.077L192.913 329.046C193.851 330.113 195.471 330.235 196.538 329.296C197.604 328.358 197.695 326.738 196.756 325.671L188.85 316.671C188.381 316.138 187.757 315.838 187.1 315.796ZM248.569 316.89C247.911 316.898 247.253 317.163 246.756 317.671L239.038 325.546C238.045 326.562 238.053 328.21 239.069 329.202C240.085 330.195 241.701 330.156 242.694 329.14L250.444 321.265C251.437 320.249 251.398 318.602 250.381 317.609C249.873 317.112 249.227 316.882 248.569 316.89ZM293.225 319.765C292.568 319.723 291.883 319.921 291.35 320.39C290.284 321.329 290.193 322.948 291.131 324.015L298.6 332.515C299.907 331.41 301.126 330.209 302.381 329.046L294.975 320.64C294.506 320.107 293.882 319.807 293.225 319.765ZM177.381 320.827C176.723 320.835 176.065 321.101 175.569 321.609L167.85 329.515C166.857 330.531 166.865 332.147 167.881 333.14C168.897 334.133 170.545 334.125 171.538 333.109L179.256 325.202C180.249 324.186 180.241 322.57 179.225 321.577C178.717 321.081 178.04 320.82 177.381 320.827ZM221.288 323.702C220.631 323.661 219.946 323.889 219.413 324.359C218.346 325.297 218.224 326.917 219.163 327.984L227.069 336.952C228.007 338.019 229.659 338.141 230.725 337.202C231.792 336.264 231.882 334.613 230.944 333.546L223.038 324.577C222.568 324.044 221.945 323.744 221.288 323.702ZM283.506 324.796C282.848 324.804 282.19 325.038 281.694 325.546L273.975 333.452C272.982 334.469 272.99 336.116 274.006 337.109C275.022 338.102 276.67 338.062 277.663 337.046L285.381 329.14C286.374 328.124 286.335 326.508 285.319 325.515C284.811 325.018 284.165 324.789 283.506 324.796ZM211.569 328.734C210.911 328.741 210.253 329.007 209.756 329.515L202.038 337.421C201.045 338.437 201.053 340.053 202.069 341.046C203.085 342.039 204.701 342.031 205.694 341.015L213.444 333.109C214.437 332.093 214.397 330.446 213.381 329.452C212.873 328.956 212.227 328.726 211.569 328.734ZM258.194 332.702C257.537 332.661 256.852 332.858 256.319 333.327C255.252 334.266 255.161 335.886 256.1 336.952L264.006 345.952C264.945 347.019 266.565 347.11 267.631 346.171C268.698 345.233 268.789 343.613 267.85 342.546L259.944 333.546C259.475 333.013 258.851 332.744 258.194 332.702ZM248.475 337.702C247.817 337.71 247.159 337.976 246.663 338.484L238.944 346.39C237.951 347.406 237.959 349.022 238.975 350.015C239.991 351.008 241.638 351 242.631 349.984L250.35 342.077C251.343 341.061 251.304 339.446 250.288 338.452C249.78 337.956 249.133 337.695 248.475 337.702ZM183.131 337.734C182.474 337.692 181.821 337.889 181.288 338.359C180.221 339.297 180.099 340.917 181.038 341.984L188.944 350.952C189.882 352.019 191.502 352.141 192.569 351.202C193.635 350.264 193.758 348.644 192.819 347.577L184.913 338.577C184.443 338.044 183.788 337.776 183.131 337.734ZM173.444 342.734C172.786 342.741 172.128 343.007 171.631 343.515L170.6 344.577C172.144 345.45 173.731 346.246 175.319 347.046C176.259 346.028 176.254 344.459 175.256 343.484C174.748 342.987 174.102 342.726 173.444 342.734ZM221.288 345.609C220.631 345.567 219.946 345.796 219.413 346.265C218.346 347.204 218.224 348.824 219.163 349.89L227.069 358.859C227.178 358.983 227.349 358.979 227.475 359.077C228.6 359.062 229.702 358.938 230.819 358.89C231.709 357.935 231.826 356.485 230.944 355.484L223.038 346.484C222.568 345.95 221.945 345.651 221.288 345.609ZM211.569 350.64C210.911 350.648 210.253 350.913 209.756 351.421L204.288 357.015C206.345 357.415 208.442 357.697 210.538 357.984L213.444 355.015C214.437 353.999 214.397 352.383 213.381 351.39C212.873 350.893 212.227 350.632 211.569 350.64Z" fill="white"/>
<path d="M235.263 133.81L182.252 332.1C182.252 332.1 198.666 344.505 199.352 373.142C199.742 389.405 183.331 413.231 164.565 415.557C122.451 420.777 75.013 390.082 61.033 347.138C44.855 297.441 58.255 240.48 83.46 203.034C111.279 161.703 140.176 149.476 168.748 139.586C197.321 129.695 235.263 133.81 235.263 133.81Z" fill="#1D4ED8"/>
<path d="M257.347 137.83C257.347 137.83 241.097 175.873 234.512 232.838C227.927 289.804 215.783 367.289 215.783 367.289L315.823 364.677L316.089 333.001C316.089 333.001 351.875 327.61 360.687 291.102C369.499 254.593 343.136 197.438 325.498 175.59C299.48 143.362 257.347 137.83 257.347 137.83Z" fill="#1D4ED8"/>
<path d="M209.812 174.569C209.812 172.322 211.634 170.5 213.881 170.5C216.128 170.5 217.95 172.322 217.95 174.569C217.95 176.817 216.128 178.638 213.881 178.638C211.634 178.638 209.812 176.817 209.812 174.569Z" fill="white"/>
<path d="M201.674 203.647C201.674 201.4 203.496 199.578 205.743 199.578C207.99 199.578 209.812 201.4 209.812 203.647C209.812 205.895 207.99 207.716 205.743 207.716C203.496 207.716 201.674 205.895 201.674 203.647Z" fill="white"/>
<path d="M194.436 232.745C194.436 230.498 196.258 228.676 198.505 228.676C200.752 228.676 202.574 230.498 202.574 232.745C202.574 234.992 200.752 236.814 198.505 236.814C196.258 236.814 194.436 234.992 194.436 232.745Z" fill="white"/>
<path d="M205.743 137.83L198.505 151.535L225.873 148.265" stroke="white" stroke-width="2" stroke-miterlimit="10" stroke-linecap="round" stroke-linejoin="round"/>
<path d="M279.921 148.266L282.21 163.133L259.527 154.62" stroke="white" stroke-width="2" stroke-miterlimit="10" stroke-linecap="round" stroke-linejoin="round"/>
<path d="M265.87 170.27C266.154 169.124 267.313 168.426 268.459 168.71L274.436 170.193C275.582 170.478 276.281 171.637 275.996 172.783L256.671 250.662C256.387 251.808 255.227 252.506 254.081 252.222L248.104 250.738C246.958 250.454 246.26 249.295 246.544 248.149L265.87 170.27Z" fill="#60A5FA"/>
<path d="M256.698 82.0321C256.698 82.0321 254.33 94.6401 245.282 98.5331C232.333 104.105 224.799 100.799 224.799 100.799C224.799 100.799 224.061 95.5691 225.875 90.2991C229.046 81.0851 236.703 76.6211 236.703 76.6211C236.703 76.6211 227.248 77.2581 223.895 81.9101C219.457 88.0661 222.534 95.2601 216.589 102.63C210.645 110.001 203.597 114.301 201.531 108.978C199.817 104.561 203.535 101.481 203.535 101.481C203.535 101.481 182.5 112.325 179.607 98.1261C177.02 85.4321 196.739 86.2451 196.739 86.2451C196.739 86.2451 183.9 85.2241 187.93 75.9461C191.614 67.4631 201.327 71.7471 208.847 66.7751C215.892 62.1171 218.026 56.4961 230.63 56.9081C238.807 57.1751 247.873 70.8561 247.873 70.8561C247.873 70.8561 252.094 66.5831 258.438 67.1091C267.486 67.8591 269.758 76.2201 269.758 76.2201C269.758 76.2201 283.494 78.4631 285.492 88.7741C288.161 102.548 275.961 105.681 275.961 105.681C275.961 105.681 266.553 103.827 261.326 96.6191C256.849 90.4471 256.698 82.0321 256.698 82.0321Z" fill="#1D4ED8"/>
<path d="M274.284 248.845C274.284 248.845 270.831 242.445 262.13 240.462C252.889 238.355 241.502 238.457 239.817 232.81C238.333 227.837 243.068 226.793 249.434 226.329C255.716 225.872 261.29 226.896 261.29 226.896C261.29 226.896 257.683 225.994 251.908 226.058C246.132 226.123 239.251 227.915 239.251 227.915C239.251 227.915 233.438 218.534 247.811 215.448C255.481 213.801 264.532 216.649 264.532 216.649C264.532 216.649 261.472 215.486 254.286 214.9C246.424 214.258 239.784 219.798 239.53 215.39C238.967 205.616 264.613 200.052 277.062 211.513" stroke="#263238" stroke-width="2" stroke-miterlimit="10" stroke-linecap="round" stroke-linejoin="round"/>
<path d="M270.4 115.924C279.732 104.966 278.414 88.5173 267.455 79.1853C256.496 69.8533 240.047 71.1713 230.715 82.1303C221.383 93.0893 222.702 109.537 233.66 118.87C244.619 128.202 261.068 126.883 270.4 115.924Z" stroke="#263238" stroke-width="2" stroke-miterlimit="10" stroke-linecap="round" stroke-linejoin="round"/>
<path d="M243.927 109.472C244.8 108.105 244.411 106.295 243.058 105.431C241.705 104.566 239.9 104.974 239.026 106.342C238.153 107.709 238.542 109.518 239.895 110.383C241.248 111.247 243.053 110.84 243.927 109.472Z" fill="#1D4ED8"/>
<path d="M253.334 106.147C254.056 105.016 253.725 103.515 252.595 102.793C251.464 102.07 249.963 102.401 249.24 103.532C248.518 104.662 248.849 106.164 249.98 106.886C251.11 107.608 252.612 107.277 253.334 106.147Z" fill="#263238"/>
<path d="M268.05 111.006C268.772 109.876 268.441 108.374 267.311 107.652C266.181 106.93 264.679 107.261 263.957 108.392C263.235 109.522 263.566 111.024 264.696 111.746C265.827 112.468 267.328 112.137 268.05 111.006Z" fill="#263238"/>
<path d="M259.527 105.609L259.499 116.139L254.049 113.984" stroke="#263238" stroke-width="2" stroke-miterlimit="10" stroke-linecap="round" stroke-linejoin="round"/>
<path d="M247.72 113.305C247.72 113.305 247.436 116.153 248.961 117.786C250.024 118.923 252.751 118.859 252.751 118.859" stroke="#263238" stroke-width="2" stroke-miterlimit="10" stroke-linecap="round" stroke-linejoin="round"/>
<path d="M271.213 196.084C271.213 196.084 282.055 198.232 287.472 207.887C292.308 216.506 293.919 226.703 293.919 226.703" stroke="#263238" stroke-width="2" stroke-miterlimit="10" stroke-linecap="round" stroke-linejoin="round"/>
<path opacity="0.2984" d="M250.564 105.556C259.958 77.7739 284.62 61.0159 305.648 68.1259C326.677 75.2359 336.109 103.522 326.715 131.304C317.322 159.087 292.659 175.845 271.631 168.735C250.602 161.625 241.17 133.339 250.564 105.556Z" fill="white"/>
<path d="M290.197 64.1405C274.927 65.6685 259.444 75.6035 249.377 92.1305C233.27 118.574 237.095 151.915 257.918 166.608C278.74 181.301 308.662 171.77 324.769 145.326C340.877 118.883 337.082 85.5385 316.26 70.8455C308.451 65.3355 299.359 63.2235 290.197 64.1405ZM290.531 69.7705C297.527 68.9105 304.544 69.9995 310.993 74.5495C328.19 86.6835 333.444 119.518 320.141 141.357C306.839 163.196 281.047 174.887 264.455 164.815C246.491 153.91 241.482 118.975 254.785 97.1355C263.099 83.4865 278.872 71.2035 290.531 69.7705Z" fill="#60A5FA"/>
<path d="M304.915 82.0898C304.915 82.0898 314.317 86.9408 317.775 99.9298C320.504 110.183 317.609 121.375 317.609 121.375" stroke="#60A5FA" stroke-width="2" stroke-miterlimit="10" stroke-linecap="round" stroke-linejoin="round"/>
<path d="M315.678 127.926L314.237 132.215" stroke="#60A5FA" stroke-width="2" stroke-miterlimit="10" stroke-linecap="round" stroke-linejoin="round"/>
<path d="M258.957 194.297C256.585 193.883 241.867 199.445 253.497 205.478" stroke="#263238" stroke-width="2" stroke-miterlimit="10" stroke-linecap="round" stroke-linejoin="round"/>
<path d="M192.385 345.426C181.835 324.445 156.983 299.973 104.107 279.578" stroke="white" stroke-width="2" stroke-miterlimit="10" stroke-linecap="round" stroke-linejoin="round"/>
<path d="M154.56 216.375L135.05 293.537" stroke="white" stroke-width="2" stroke-miterlimit="10" stroke-linecap="round" stroke-linejoin="round"/>
<path d="M342.574 266.176C337.468 236.873 311.463 217.866 287.444 238.348C263.425 258.83 251.975 298.158 302.381 329.047" stroke="white" stroke-width="2" stroke-miterlimit="10" stroke-linecap="round" stroke-linejoin="round"/>
<path d="M300.53 208.42V230.666" stroke="white" stroke-width="2" stroke-miterlimit="10" stroke-linecap="round" stroke-linejoin="round"/>
<path d="M161.003 398.236C161.003 398.236 172.572 420.693 186.994 430.153C196.138 436.151 208.577 436.859 211.06 431.572C211.244 431.178 203.299 429.943 197.182 424.905C191.065 419.867 188.536 415.557 188.536 415.557C188.536 415.557 190.38 419.407 197.796 424.995C204.609 430.129 211.838 433.162 216.451 429.799C221.024 426.467 208.288 420.802 203.612 416.892C198.936 412.982 194.653 407.643 194.653 407.643C194.653 407.643 198.478 413.872 207.49 419.476C214.531 423.854 217.526 424.369 221.484 421.365C225.904 418.011 218.54 413.387 211.044 407.18C203.07 400.578 193.172 385.371 193.172 385.371C193.172 385.371 196.091 388.222 203.628 390.958C209.119 392.95 217.935 393.03 216.594 388.559C215.529 385.009 203.436 378.494 193.312 373.859C183.187 369.223 176.942 369.968 176.942 369.968" stroke="#263238" stroke-width="2" stroke-miterlimit="10" stroke-linecap="round" stroke-linejoin="round"/>
<path d="M394.602 217.252H273.676V380.418L393.276 384.06L394.602 217.252Z" fill="white"/>
<path d="M442.85 288.76H437.647V300.656H442.85V288.76Z" stroke="#263238" stroke-width="2" stroke-miterlimit="10" stroke-linecap="round" stroke-linejoin="round"/>
<path d="M425.932 288.76H420.729V300.656H425.932V288.76Z" stroke="#263238" stroke-width="2" stroke-miterlimit="10" stroke-linecap="round" stroke-linejoin="round"/>
<path d="M409.014 288.76H403.811V300.656H409.014V288.76Z" stroke="#263238" stroke-width="2" stroke-miterlimit="10" stroke-linecap="round" stroke-linejoin="round"/>
<path d="M442.85 313.338H437.647V325.234H442.85V313.338Z" stroke="#263238" stroke-width="2" stroke-miterlimit="10" stroke-linecap="round" stroke-linejoin="round"/>
<path d="M425.932 313.338H420.729V325.234H425.932V313.338Z" stroke="#263238" stroke-width="2" stroke-miterlimit="10" stroke-linecap="round" stroke-linejoin="round"/>
<path d="M409.014 313.338H403.811V325.234H409.014V313.338Z" stroke="#263238" stroke-width="2" stroke-miterlimit="10" stroke-linecap="round" stroke-linejoin="round"/>
<path d="M442.85 337.916H437.647V349.812H442.85V337.916Z" stroke="#263238" stroke-width="2" stroke-miterlimit="10" stroke-linecap="round" stroke-linejoin="round"/>
<path d="M425.932 337.916H420.729V349.812H425.932V337.916Z" stroke="#263238" stroke-width="2" stroke-miterlimit="10" stroke-linecap="round" stroke-linejoin="round"/>
<path d="M409.014 337.916H403.811V349.812H409.014V337.916Z" stroke="#263238" stroke-width="2" stroke-miterlimit="10" stroke-linecap="round" stroke-linejoin="round"/>
<path d="M442.85 362.492H437.647V374.389H442.85V362.492Z" stroke="#263238" stroke-width="2" stroke-miterlimit="10" stroke-linecap="round" stroke-linejoin="round"/>
<path d="M425.932 362.492H420.729V374.389H425.932V362.492Z" stroke="#263238" stroke-width="2" stroke-miterlimit="10" stroke-linecap="round" stroke-linejoin="round"/>
<path d="M409.014 362.492H403.811V374.389H409.014V362.492Z" stroke="#263238" stroke-width="2" stroke-miterlimit="10" stroke-linecap="round" stroke-linejoin="round"/>
<path d="M442.251 387.07H437.048V398.966H442.251V387.07Z" stroke="#263238" stroke-width="2" stroke-miterlimit="10" stroke-linecap="round" stroke-linejoin="round"/>
<path d="M425.333 387.07H420.129V398.966H425.333V387.07Z" stroke="#263238" stroke-width="2" stroke-miterlimit="10" stroke-linecap="round" stroke-linejoin="round"/>
<path d="M408.414 387.07H403.211V398.966H408.414V387.07Z" stroke="#263238" stroke-width="2" stroke-miterlimit="10" stroke-linecap="round" stroke-linejoin="round"/>
<path d="M442.251 410.428H437.048V422.325H442.251V410.428Z" stroke="#263238" stroke-width="2" stroke-miterlimit="10" stroke-linecap="round" stroke-linejoin="round"/>
<path d="M425.333 410.428H420.129V422.325H425.333V410.428Z" stroke="#263238" stroke-width="2" stroke-miterlimit="10" stroke-linecap="round" stroke-linejoin="round"/>
<path d="M408.414 410.428H403.211V422.325H408.414V410.428Z" stroke="#263238" stroke-width="2" stroke-miterlimit="10" stroke-linecap="round" stroke-linejoin="round"/>
<path d="M127.648 436.014V242.746H236.015V270.915H273.676V436.014H127.648Z" fill="#60A5FA"/>
<path d="M273.676 326.235V217.252H393.957V368.825" stroke="#263238" stroke-width="2" stroke-miterlimit="10" stroke-linecap="round" stroke-linejoin="round"/>
<path d="M393.276 252.967H452.186V436.653" stroke="#263238" stroke-width="2" stroke-miterlimit="10" stroke-linecap="round" stroke-linejoin="round"/>
<path d="M290.183 233.14C290.183 233.07 290.239 233.014 290.308 233.014H306.471C306.541 233.014 306.597 233.07 306.597 233.14V245.982C306.597 246.052 306.541 246.108 306.471 246.108H290.308C290.239 246.108 290.183 246.052 290.183 245.982V233.14Z" fill="#1D4ED8"/>
<path d="M290.183 260.628C290.183 260.559 290.239 260.502 290.308 260.502H306.471C306.541 260.502 306.597 260.559 306.597 260.628V273.47C306.597 273.54 306.541 273.596 306.471 273.596H290.308C290.239 273.596 290.183 273.54 290.183 273.47V260.628Z" fill="#1D4ED8"/>
<path d="M308.026 233.14C308.026 233.07 308.082 233.014 308.152 233.014H324.314C324.384 233.014 324.44 233.07 324.44 233.14V245.982C324.44 246.052 324.384 246.108 324.314 246.108H308.152C308.082 246.108 308.026 246.052 308.026 245.982V233.14Z" fill="#1D4ED8"/>
<path d="M308.026 260.628C308.026 260.559 308.082 260.502 308.152 260.502H324.314C324.384 260.502 324.44 260.559 324.44 260.628V273.47C324.44 273.54 324.384 273.596 324.314 273.596H308.152C308.082 273.596 308.026 273.54 308.026 273.47V260.628Z" fill="#1D4ED8"/>
<path d="M325.552 233.14C325.552 233.07 325.608 233.014 325.678 233.014H341.84C341.91 233.014 341.966 233.07 341.966 233.14V245.982C341.966 246.052 341.91 246.108 341.84 246.108H325.678C325.608 246.108 325.552 246.052 325.552 245.982V233.14Z" fill="#1D4ED8"/>
<path d="M325.552 260.628C325.552 260.559 325.608 260.502 325.678 260.502H341.84C341.91 260.502 341.966 260.559 341.966 260.628V273.47C341.966 273.54 341.91 273.596 341.84 273.596H325.678C325.608 273.596 325.552 273.54 325.552 273.47V260.628Z" fill="#1D4ED8"/>
<path d="M343.395 233.14C343.395 233.07 343.452 233.014 343.521 233.014H359.684C359.753 233.014 359.81 233.07 359.81 233.14V245.982C359.81 246.052 359.753 246.108 359.684 246.108H343.521C343.452 246.108 343.395 246.052 343.395 245.982V233.14Z" fill="#1D4ED8"/>
<path d="M343.395 260.628C343.395 260.559 343.452 260.502 343.521 260.502H359.684C359.753 260.502 359.81 260.559 359.81 260.628V273.47C359.81 273.54 359.753 273.596 359.684 273.596H343.521C343.452 273.596 343.395 273.54 343.395 273.47V260.628Z" fill="#1D4ED8"/>
<path d="M361.037 233.14C361.037 233.07 361.093 233.014 361.163 233.014H377.325C377.395 233.014 377.451 233.07 377.451 233.14V245.982C377.451 246.052 377.395 246.108 377.325 246.108H361.163C361.093 246.108 361.037 246.052 361.037 245.982V233.14Z" fill="#1D4ED8"/>
<path d="M361.037 260.628C361.037 260.559 361.093 260.502 361.163 260.502H377.325C377.395 260.502 377.451 260.559 377.451 260.628V273.47C377.451 273.54 377.395 273.596 377.325 273.596H361.163C361.093 273.596 361.037 273.54 361.037 273.47V260.628Z" fill="#1D4ED8"/>
<path d="M442.85 266.445H437.647V278.342H442.85V266.445Z" stroke="#263238" stroke-width="2" stroke-miterlimit="10" stroke-linecap="round" stroke-linejoin="round"/>
<path d="M425.932 266.445H420.729V278.342H425.932V266.445Z" stroke="#263238" stroke-width="2" stroke-miterlimit="10" stroke-linecap="round" stroke-linejoin="round"/>
<path d="M409.014 266.445H403.811V278.342H409.014V266.445Z" stroke="#263238" stroke-width="2" stroke-miterlimit="10" stroke-linecap="round" stroke-linejoin="round"/>
<path d="M292.127 288.371H298.197V302.249H292.127V288.371Z" stroke="#1D4ED8" stroke-width="2" stroke-miterlimit="10" stroke-linecap="round" stroke-linejoin="round"/>
<path d="M311.865 288.371H317.935V302.249H311.865V288.371Z" stroke="#1D4ED8" stroke-width="2" stroke-miterlimit="10" stroke-linecap="round" stroke-linejoin="round"/>
<path d="M351.341 288.371H357.411V302.249H351.341V288.371Z" stroke="#1D4ED8" stroke-width="2" stroke-miterlimit="10" stroke-linecap="round" stroke-linejoin="round"/>
<path d="M371.079 288.371H377.149V302.249H371.079V288.371Z" stroke="#1D4ED8" stroke-width="2" stroke-miterlimit="10" stroke-linecap="round" stroke-linejoin="round"/>
<path d="M331.603 288.371H337.673V302.249H331.603V288.371Z" stroke="#1D4ED8" stroke-width="2" stroke-miterlimit="10" stroke-linecap="round" stroke-linejoin="round"/>
<path d="M292.127 314.59H298.197V328.468H292.127V314.59Z" stroke="#1D4ED8" stroke-width="2" stroke-miterlimit="10" stroke-linecap="round" stroke-linejoin="round"/>
<path d="M311.865 314.59H317.935V328.468H311.865V314.59Z" stroke="#1D4ED8" stroke-width="2" stroke-miterlimit="10" stroke-linecap="round" stroke-linejoin="round"/>
<path d="M351.341 314.59H357.411V328.468H351.341V314.59Z" stroke="#1D4ED8" stroke-width="2" stroke-miterlimit="10" stroke-linecap="round" stroke-linejoin="round"/>
<path d="M371.079 314.59H377.149V328.468H371.079V314.59Z" stroke="#1D4ED8" stroke-width="2" stroke-miterlimit="10" stroke-linecap="round" stroke-linejoin="round"/>
<path d="M331.603 314.59H337.673V328.468H331.603V314.59Z" stroke="#1D4ED8" stroke-width="2" stroke-miterlimit="10" stroke-linecap="round" stroke-linejoin="round"/>
<path d="M144.169 255.547H150.003V268.884H144.169V255.547Z" fill="white"/>
<path d="M169.459 255.547H175.293V268.884H169.459V255.547Z" fill="white"/>
<path d="M220.039 255.547H225.873V268.884H220.039V255.547Z" fill="white"/>
<path d="M194.749 255.547H200.583V268.884H194.749V255.547Z" fill="white"/>
<path d="M144.169 280.74H150.003V294.077H144.169V280.74Z" fill="white"/>
<path d="M169.459 280.74H175.293V294.077H169.459V280.74Z" fill="white"/>
<path d="M220.039 280.74H225.873V294.077H220.039V280.74Z" fill="white"/>
<path d="M194.749 280.74H200.583V294.077H194.749V280.74Z" fill="white"/>
<path d="M246.264 280.74H252.097V294.077H246.264V280.74Z" fill="white"/>
<path d="M144.169 306.256H150.003V319.593H144.169V306.256Z" fill="white"/>
<path d="M169.459 306.256H175.293V319.593H169.459V306.256Z" fill="white"/>
<path d="M194.749 306.256H200.583V319.593H194.749V306.256Z" fill="white"/>
<path d="M144.169 333.523H150.003V346.86H144.169V333.523Z" fill="white"/>
<path d="M169.459 333.523H175.293V346.86H169.459V333.523Z" fill="white"/>
<path d="M144.169 360.461H150.003V373.799H144.169V360.461Z" fill="white"/>
<path d="M169.459 360.461H175.293V373.799H169.459V360.461Z" fill="white"/>
<path d="M328.253 384.061V388.828" stroke="#263238" stroke-width="2" stroke-miterlimit="10" stroke-linecap="round" stroke-linejoin="round"/>
<path d="M328.253 394.201V398.967" stroke="#263238" stroke-width="2" stroke-miterlimit="10" stroke-linecap="round" stroke-linejoin="round"/>
<path d="M320.799 391.514H325.566" stroke="#263238" stroke-width="2" stroke-miterlimit="10" stroke-linecap="round" stroke-linejoin="round"/>
<path d="M330.94 391.514H335.706" stroke="#263238" stroke-width="2" stroke-miterlimit="10" stroke-linecap="round" stroke-linejoin="round"/>
<path d="M324.407 331.004L354.869 292.326L415.862 343.514L414.664 435.85H348.169V399.114L324.407 331.004Z" fill="#60A5FA"/>
<path d="M385.5 346.859V433.546" stroke="white" stroke-width="2" stroke-miterlimit="10" stroke-linecap="round" stroke-linejoin="round"/>
<path d="M361.752 346.859H370.134V361.266H361.752V346.859Z" fill="white"/>
<path d="M337.52 346.859H345.903V361.266H337.52V346.859Z" fill="white"/>
<path d="M361.752 374.076H370.134V388.483H361.752V374.076Z" fill="white"/>
<path d="M361.752 401.639H370.134V416.046H361.752V401.639Z" fill="white"/>
<path d="M324.407 330.989L354.869 293.66" stroke="#263238" stroke-width="2" stroke-miterlimit="10" stroke-linecap="round" stroke-linejoin="round"/>
<path d="M354.869 292.326L381.252 346.86H431.682L405.511 292.326H354.869Z" fill="#263238"/>
<path d="M165.62 435.851V396.704L217.63 312.014H302.566L348.498 400.91V435.851H165.62Z" fill="white"/>
<path d="M166.09 396.643V436.108" stroke="#1D4ED8" stroke-width="2" stroke-miterlimit="10" stroke-linecap="round" stroke-linejoin="round"/>
<path d="M237.117 381.232V436.107" stroke="#1D4ED8" stroke-width="2" stroke-miterlimit="10" stroke-linecap="round" stroke-linejoin="round"/>
<path d="M348.305 396.643V436.108" stroke="#1D4ED8" stroke-width="2" stroke-miterlimit="10" stroke-linecap="round" stroke-linejoin="round"/>
<path d="M289.244 364.682C289.244 359.38 293.542 355.082 298.843 355.082C304.145 355.082 308.443 359.38 308.443 364.682C308.443 369.984 304.145 374.282 298.843 374.282C293.542 374.282 289.244 369.984 289.244 364.682Z" stroke="#1D4ED8" stroke-width="2" stroke-miterlimit="10" stroke-linecap="round" stroke-linejoin="round"/>
<path d="M300.002 403.363H316.884V436.108H300.002V403.363Z" fill="#1D4ED8"/>
<path d="M258.614 396.643H275.669V421.121H258.614V396.643Z" stroke="#1D4ED8" stroke-width="2" stroke-miterlimit="10" stroke-linecap="round" stroke-linejoin="round"/>
<path d="M258.614 406.635H275.672" stroke="#1D4ED8" stroke-width="2" stroke-miterlimit="10" stroke-linecap="round" stroke-linejoin="round"/>
<path d="M214.533 411.936H223.019V427.535H214.533V411.936Z" stroke="#1D4ED8" stroke-width="2" stroke-miterlimit="10" stroke-linecap="round" stroke-linejoin="round"/>
<path d="M180.777 411.936H189.263V427.535H180.777V411.936Z" stroke="#1D4ED8" stroke-width="2" stroke-miterlimit="10" stroke-linecap="round" stroke-linejoin="round"/>
<path d="M298.843 355.082V374.282" stroke="#1D4ED8" stroke-width="2" stroke-miterlimit="10" stroke-linecap="round" stroke-linejoin="round"/>
<path d="M308.443 364.682H289.244" stroke="#1D4ED8" stroke-width="2" stroke-miterlimit="10" stroke-linecap="round" stroke-linejoin="round"/>
<path d="M231.555 292.344C231.138 292.343 230.804 292.677 230.804 293.094V305.399H210.742L149.637 404.752H242.191L301.461 322.333L343.88 404.752H367.571L313.348 305.399H242.65V293.094C242.65 292.677 242.317 292.344 241.899 292.344H231.555Z" fill="#1D4ED8"/>
<path d="M54.165 367.13L84.627 324.939L145.62 364.496L144.421 435.85H53.979L54.165 367.13Z" fill="white"/>
<path d="M54.165 367.436L84.627 324.939L145.62 364.782L144.421 436.653H53.979L54.165 367.436Z" stroke="#263238" stroke-width="2" stroke-miterlimit="10" stroke-linecap="round" stroke-linejoin="round"/>
<path d="M107.854 348.508V435.85" stroke="#263238" stroke-width="2" stroke-miterlimit="10" stroke-linecap="round" stroke-linejoin="round"/>
<path d="M87.1108 370.461H92.9618V381.365H87.1108V370.461Z" stroke="#263238" stroke-width="2" stroke-miterlimit="10" stroke-linecap="round" stroke-linejoin="round"/>
<path d="M67.3008 370.461H73.1518V381.365H67.3008V370.461Z" stroke="#263238" stroke-width="2" stroke-miterlimit="10" stroke-linecap="round" stroke-linejoin="round"/>
<path d="M87.1108 391.059H92.9618V401.963H87.1108V391.059Z" stroke="#263238" stroke-width="2" stroke-miterlimit="10" stroke-linecap="round" stroke-linejoin="round"/>
<path d="M87.1108 411.92H92.9618V422.824H87.1108V411.92Z" stroke="#263238" stroke-width="2" stroke-miterlimit="10" stroke-linecap="round" stroke-linejoin="round"/>
<path d="M127.648 419.736H134.849V435.85H127.648V419.736Z" fill="#263238"/>
<path d="M67.3008 391.059H73.1518V401.963H67.3008V391.059Z" stroke="#263238" stroke-width="2" stroke-miterlimit="10" stroke-linecap="round" stroke-linejoin="round"/>
<path d="M67.3008 411.92H73.1518V422.824H67.3008V411.92Z" stroke="#263238" stroke-width="2" stroke-miterlimit="10" stroke-linecap="round" stroke-linejoin="round"/>
<path d="M111.937 315.639V323.671H82.1558L50.0308 367.108H54.1248L83.7188 325.671L107.125 366.858H153.688L129.532 323.671H120.782V315.639H111.937Z" fill="#263238"/>
<path d="M393.014 372.852C387.206 372.852 382.465 378.13 382.465 384.589C382.465 387.781 383.603 390.652 385.47 392.762C381.357 395.615 378.484 400.459 378.484 406.244C378.484 415.166 384.989 422.452 393.015 422.452C401.043 422.452 407.546 415.166 407.546 406.244C407.546 400.436 404.629 395.61 400.491 392.762C402.358 390.652 403.496 387.781 403.496 384.589C403.494 378.13 398.824 372.852 393.014 372.852Z" fill="#1D4ED8"/>
<path d="M393.025 397.684V436.651" stroke="#263238" stroke-width="2" stroke-miterlimit="10" stroke-linecap="round" stroke-linejoin="round"/>
<path d="M30.3472 401.801C30.3472 390.183 36.4712 380.766 44.0252 380.766C51.5792 380.766 57.7032 390.183 57.7032 401.801C57.7032 413.417 51.5792 422.836 44.0252 422.836C36.4712 422.836 30.3472 413.418 30.3472 401.801Z" fill="#60A5FA"/>
<path d="M44.3662 392.549V436.385" stroke="#263238" stroke-width="2" stroke-miterlimit="10" stroke-linecap="round" stroke-linejoin="round"/>
<path d="M52.0622 395.641L44.3662 402.142" stroke="#263238" stroke-width="2" stroke-miterlimit="10" stroke-linecap="round" stroke-linejoin="round"/>
<path d="M36.1841 408.545L44.0261 415.608" stroke="#263238" stroke-width="2" stroke-miterlimit="10" stroke-linecap="round" stroke-linejoin="round"/>
<path d="M401.078 404.42L393.382 410.921" stroke="#263238" stroke-width="2" stroke-miterlimit="10" stroke-linecap="round" stroke-linejoin="round"/>
</svg>
